<svg width="100" height="100" viewBox="0 0 100 100" fill="none" xmlns="http://www.w3.org/2000/svg">
<circle cx="50" cy="50" r="48" fill="#C4C4C4" stroke="#F7F9FB" stroke-width="4"/>
<path d="M50.0001 15.7144C31.0949 15.7144 15.7144 31.0949 15.7144 50.0001C15.7144 68.9052 31.0949 84.2858 50.0001 84.2858C68.9052 84.2858 84.2858 68.9052 84.2858 50.0001C84.2858 31.0949 68.9052 15.7144 50.0001 15.7144ZM64.5509 54.3612L60.6081 56.5075C58.8801 57.4504 57.4641 58.8629 56.5178 60.5875L54.3544 64.5166C53.4801 66.1075 51.8138 67.0915 50.0001 67.0915C48.1864 67.0915 46.5201 66.1041 45.6458 64.5166L43.4858 60.5841C42.5361 58.8561 41.1201 57.4435 39.3886 56.5006L35.4526 54.3578C33.8481 53.4938 32.8572 51.8206 32.8572 50.0001C32.8572 48.1795 33.8481 46.5064 35.4492 45.6389L39.3921 43.4926C41.1201 42.5498 42.5361 41.1372 43.4824 39.4126L45.6458 35.4835C46.5201 33.8926 48.1864 32.9086 50.0001 32.9086C51.8138 32.9086 53.4801 33.8961 54.3544 35.4835L56.5144 39.4161C57.4641 41.1406 58.8801 42.5532 60.6081 43.4961L64.5475 45.6389C66.1521 46.5064 67.1429 48.1795 67.1429 50.0001C67.1429 51.8206 66.1521 53.4938 64.5509 54.3612Z" fill="#B8B8B8"/>
<path d="M64.5477 45.6356L60.6083 43.4927C58.8803 42.5498 57.4643 41.1373 56.5146 39.4127L54.3546 35.4801C53.4803 33.8927 51.814 32.9053 50.0003 32.9053C48.1866 32.9053 46.5203 33.8927 45.646 35.4801L43.486 39.4093C42.5397 41.1373 41.1237 42.5498 39.3957 43.4893L35.4529 45.6356C33.8483 46.5064 32.8574 48.1796 32.8574 50.0001C32.8574 51.8207 33.8483 53.4938 35.4529 54.3647L39.3888 56.5076C41.1203 57.4504 42.5363 58.863 43.486 60.591L45.646 64.5236C46.5203 66.111 48.1866 67.0984 50.0003 67.0984C51.814 67.0984 53.4803 66.111 54.3546 64.5236L56.518 60.5944C57.4643 58.8664 58.8803 57.4538 60.6083 56.5144L64.5511 54.3681C66.1523 53.4938 67.1431 51.8207 67.1431 50.0001C67.1431 48.1796 66.1523 46.5064 64.5477 45.6356Z" fill="#C4C4C4"/>
<path d="M38.86 54V46.95H39.79V53.2H43.3V54H38.86ZM46.3195 54.09C45.8261 54.09 45.3995 53.9867 45.0395 53.78C44.6795 53.5667 44.3995 53.2667 44.1995 52.88C43.9995 52.4867 43.8995 52.02 43.8995 51.48C43.8995 50.9467 43.9995 50.4867 44.1995 50.1C44.3995 49.7067 44.6795 49.4067 45.0395 49.2C45.3995 48.9867 45.8261 48.88 46.3195 48.88C46.8128 48.88 47.2395 48.9867 47.5995 49.2C47.9661 49.4067 48.2461 49.7067 48.4395 50.1C48.6395 50.4867 48.7395 50.9467 48.7395 51.48C48.7395 52.02 48.6395 52.4867 48.4395 52.88C48.2461 53.2667 47.9661 53.5667 47.5995 53.78C47.2395 53.9867 46.8128 54.09 46.3195 54.09ZM46.3195 53.37C46.7728 53.37 47.1361 53.21 47.4095 52.89C47.6828 52.57 47.8195 52.1 47.8195 51.48C47.8195 50.86 47.6828 50.3933 47.4095 50.08C47.1361 49.7667 46.7728 49.61 46.3195 49.61C45.8595 49.61 45.4928 49.7667 45.2195 50.08C44.9528 50.3933 44.8195 50.86 44.8195 51.48C44.8195 52.1 44.9528 52.57 45.2195 52.89C45.4928 53.21 45.8595 53.37 46.3195 53.37ZM52.2012 56.24C51.7612 56.24 51.3578 56.1867 50.9912 56.08C50.6245 55.9733 50.2945 55.81 50.0012 55.59L50.2412 54.92C50.4478 55.06 50.6512 55.1733 50.8512 55.26C51.0512 55.3467 51.2578 55.41 51.4712 55.45C51.6912 55.49 51.9178 55.51 52.1512 55.51C52.6445 55.51 53.0145 55.3833 53.2612 55.13C53.5078 54.8767 53.6312 54.5167 53.6312 54.05V52.64H53.7312C53.6245 53.02 53.4045 53.3233 53.0712 53.55C52.7445 53.77 52.3578 53.88 51.9112 53.88C51.4578 53.88 51.0612 53.78 50.7212 53.58C50.3878 53.3733 50.1278 53.0833 49.9412 52.71C49.7545 52.33 49.6612 51.8867 49.6612 51.38C49.6612 50.8667 49.7545 50.4233 49.9412 50.05C50.1278 49.6767 50.3878 49.39 50.7212 49.19C51.0612 48.9833 51.4578 48.88 51.9112 48.88C52.3578 48.88 52.7445 48.99 53.0712 49.21C53.3978 49.43 53.6145 49.7333 53.7212 50.12L53.6312 50.03L53.7212 48.97H54.6012C54.5812 49.17 54.5612 49.37 54.5412 49.57C54.5278 49.77 54.5212 49.9667 54.5212 50.16V53.94C54.5212 54.6867 54.3245 55.2567 53.9312 55.65C53.5445 56.0433 52.9678 56.24 52.2012 56.24ZM52.1112 53.16C52.5712 53.16 52.9378 53.0033 53.2112 52.69C53.4845 52.3767 53.6212 51.94 53.6212 51.38C53.6212 50.8133 53.4845 50.3767 53.2112 50.07C52.9378 49.7633 52.5712 49.61 52.1112 49.61C51.6445 49.61 51.2712 49.7633 50.9912 50.07C50.7178 50.3767 50.5812 50.8133 50.5812 51.38C50.5812 51.94 50.7178 52.3767 50.9912 52.69C51.2712 53.0033 51.6445 53.16 52.1112 53.16ZM58.1652 54.09C57.6718 54.09 57.2452 53.9867 56.8852 53.78C56.5252 53.5667 56.2452 53.2667 56.0452 52.88C55.8452 52.4867 55.7452 52.02 55.7452 51.48C55.7452 50.9467 55.8452 50.4867 56.0452 50.1C56.2452 49.7067 56.5252 49.4067 56.8852 49.2C57.2452 48.9867 57.6718 48.88 58.1652 48.88C58.6585 48.88 59.0852 48.9867 59.4452 49.2C59.8118 49.4067 60.0918 49.7067 60.2852 50.1C60.4852 50.4867 60.5852 50.9467 60.5852 51.48C60.5852 52.02 60.4852 52.4867 60.2852 52.88C60.0918 53.2667 59.8118 53.5667 59.4452 53.78C59.0852 53.9867 58.6585 54.09 58.1652 54.09ZM58.1652 53.37C58.6185 53.37 58.9818 53.21 59.2552 52.89C59.5285 52.57 59.6652 52.1 59.6652 51.48C59.6652 50.86 59.5285 50.3933 59.2552 50.08C58.9818 49.7667 58.6185 49.61 58.1652 49.61C57.7052 49.61 57.3385 49.7667 57.0652 50.08C56.7985 50.3933 56.6652 50.86 56.6652 51.48C56.6652 52.1 56.7985 52.57 57.0652 52.89C57.3385 53.21 57.7052 53.37 58.1652 53.37Z" fill="#9E9E9E"/>
</svg>
