<svg width="24" height="24" viewBox="0 0 24 24" fill="none" xmlns="http://www.w3.org/2000/svg">
<path d="M12.0001 0C5.40898 0 0 5.40894 0 12C0 17.6245 3.94669 22.7336 9.18757 24V20.0299C8.66828 20.1436 8.19037 20.1469 7.66174 19.9911C6.95257 19.7818 6.37633 19.3094 5.94859 18.5891C5.67595 18.1291 5.19273 17.6303 4.68863 17.6669L4.56504 16.2662C5.65507 16.1728 6.59807 16.9303 7.15783 17.8707C7.40649 18.2889 7.69269 18.5341 8.06 18.6425C8.41504 18.7471 8.79627 18.6969 9.24049 18.54C9.352 17.6506 9.75941 17.3177 10.0672 16.849V16.8483C6.94158 16.3821 5.69591 14.7239 5.20152 13.415C4.54636 11.6772 4.89793 9.5061 6.05644 8.13409C6.07896 8.10736 6.11961 8.03741 6.10387 7.98853C5.57267 6.38397 6.21996 5.05664 6.24376 4.91583C6.8568 5.09711 6.95641 4.73346 8.90668 5.91833L9.24378 6.12085C9.38478 6.2049 9.34046 6.15692 9.48146 6.1463C10.2957 5.92511 11.1541 5.80298 11.9999 5.79199C12.8521 5.80298 13.705 5.92511 14.553 6.15527L14.6621 6.16626C14.6526 6.16479 14.6918 6.1593 14.7575 6.12012C17.1937 4.64447 17.1062 5.12677 17.7595 4.91437C17.7832 5.05536 18.4218 6.4043 17.8963 7.98853C17.8255 8.20679 20.0085 10.2057 18.7985 13.4145C18.3041 14.7239 17.0586 16.3821 13.933 16.8483V16.849C14.3336 17.4597 14.815 17.7845 14.8124 19.0443V24C20.0535 22.7336 24 17.6245 24 12C24.0002 5.40894 18.5912 0 12.0001 0V0Z" fill="black"/>
</svg>
