<svg width="18" height="18" viewBox="0 0 18 18" fill="none" xmlns="http://www.w3.org/2000/svg">
<circle cx="9" cy="9" r="8.5" fill="white" stroke="#50A7EA"/>
<path fill-rule="evenodd" clip-rule="evenodd" d="M5.59574 5.00004L12.4575 5C12.7002 5 12.9428 5.03565 13.1963 5.15384C13.5002 5.2955 13.6613 5.51877 13.7742 5.68388C13.783 5.69673 13.7912 5.70997 13.7988 5.72351C13.9316 5.9598 14 6.21493 14 6.48936C14 6.75012 13.938 7.03421 13.7988 7.28182C13.7975 7.28422 13.7962 7.28654 13.7948 7.2889L9.45969 14.7357C9.36409 14.8999 9.18814 15.0007 8.99812 15C8.80809 14.9993 8.63284 14.8973 8.53842 14.7324L4.2829 7.30152C4.28168 7.29951 4.28045 7.2975 4.27923 7.29545C4.18184 7.13497 4.03123 6.88679 4.00488 6.56652C3.98068 6.27199 4.04687 5.97689 4.19486 5.72102C4.34285 5.46511 4.56564 5.26054 4.83361 5.13532C5.12093 5.00105 5.4121 5.00004 5.59574 5.00004ZM8.46808 6.06384H5.59574C5.40703 6.06384 5.33459 6.07546 5.28395 6.09914C5.21391 6.13182 5.1551 6.18561 5.11578 6.25359C5.07645 6.32162 5.05867 6.40045 5.06514 6.47936C5.06885 6.52458 5.08729 6.57631 5.19604 6.75567C5.19831 6.75943 5.20054 6.76323 5.20272 6.76703L8.46808 12.4689V6.06384ZM9.53191 6.06384V12.4971L12.8729 6.75798C12.9106 6.68947 12.9362 6.59047 12.9362 6.48936C12.9362 6.40735 12.9192 6.33613 12.8812 6.26273C12.8413 6.20536 12.817 6.17499 12.7967 6.15419C12.7792 6.13641 12.7658 6.12688 12.7468 6.11806C12.6678 6.08123 12.587 6.06384 12.4575 6.06384H9.53191Z" fill="#50A7EA"/>
</svg>
