<svg width="11" height="11" viewBox="0 0 11 11" fill="none" xmlns="http://www.w3.org/2000/svg">
<g clip-path="url(#clip0_3912_26345)">
<path d="M10.4809 5.86199C10.3442 5.86199 10.213 5.91632 10.1163 6.01301C10.0196 6.10971 9.96529 6.24086 9.96529 6.37762V8.45322C9.96484 8.85411 9.80538 9.23845 9.52192 9.52192C9.23845 9.80538 8.85411 9.96484 8.45322 9.96529H2.54674C2.14585 9.96484 1.76152 9.80538 1.47805 9.52192C1.19458 9.23845 1.03512 8.85411 1.03467 8.45322V2.54674C1.03512 2.14585 1.19458 1.76152 1.47805 1.47805C1.76152 1.19458 2.14585 1.03512 2.54674 1.03467H4.62234C4.7591 1.03467 4.89025 0.980343 4.98695 0.883645C5.08364 0.786946 5.13797 0.655795 5.13797 0.519043C5.13797 0.382291 5.08364 0.251139 4.98695 0.154441C4.89025 0.0577426 4.7591 0.00341797 4.62234 0.00341797H2.54674C1.87245 0.00421399 1.22601 0.272426 0.749218 0.749218C0.272426 1.22601 0.00421399 1.87245 0.00341797 2.54674V8.45322C0.00421399 9.12751 0.272426 9.77395 0.749218 10.2507C1.22601 10.7275 1.87245 10.9957 2.54674 10.9965H8.45322C9.12751 10.9957 9.77395 10.7275 10.2507 10.2507C10.7275 9.77395 10.9957 9.12751 10.9965 8.45322V6.37762C10.9965 6.24086 10.9422 6.10971 10.8455 6.01301C10.7488 5.91632 10.6177 5.86199 10.4809 5.86199Z" fill="#9CADB6"/>
<path d="M10.4699 4.35652e-08H7.26448C7.12946 -2.58495e-05 6.99981 0.0529105 6.9034 0.147436C6.80699 0.241961 6.7515 0.370533 6.74885 0.505527C6.74348 0.794922 6.9869 1.03125 7.27608 1.03125H9.23825L5.13172 5.13906C5.03503 5.23576 4.98071 5.36691 4.98071 5.50365C4.98071 5.6404 5.03503 5.77154 5.13172 5.86824C5.22842 5.96493 5.35957 6.01925 5.49631 6.01925C5.63306 6.01925 5.76421 5.96493 5.8609 5.86824L9.96872 1.76172V3.73098C9.96872 3.86773 10.023 3.99888 10.1197 4.09558C10.2164 4.19228 10.3476 4.2466 10.4843 4.2466C10.6211 4.2466 10.7522 4.19228 10.8489 4.09558C10.9456 3.99888 11 3.86773 11 3.73098V0.529805C11 0.460212 10.9863 0.3913 10.9596 0.327008C10.933 0.262715 10.8939 0.2043 10.8447 0.1551C10.7955 0.105901 10.7371 0.0668799 10.6728 0.0402673C10.6085 0.0136548 10.5395 -2.81775e-05 10.4699 4.35652e-08Z" fill="#9CADB6"/>
</g>
<defs>
<clipPath id="clip0_3912_26345">
<rect width="11" height="11" fill="white"/>
</clipPath>
</defs>
</svg>
