<svg width="15" height="15" viewBox="0 0 15 15" fill="none" xmlns="http://www.w3.org/2000/svg">
<g clip-path="url(#clip0_3912_26462)">
<path d="M6.21852 11.4328L4.451 13.2003C3.71822 13.9331 2.53155 13.9331 1.79939 13.2004C1.06708 12.4681 1.06708 11.2813 1.79924 10.5492L5.33489 7.0135C6.06706 6.28131 7.25385 6.28131 7.98601 7.0135C8.23009 7.25758 8.62583 7.25758 8.86991 7.0135C9.11398 6.76943 9.11398 6.37368 8.86991 6.12961C7.64957 4.90927 5.67134 4.90927 4.451 6.12961L0.915376 9.66524C-0.304963 10.8856 -0.304963 12.8638 0.915376 14.0841C2.13557 15.3051 4.11394 15.3051 5.33492 14.0841L7.10244 12.3166C7.34652 12.0725 7.34652 11.6768 7.10244 11.4327C6.85837 11.1887 6.4626 11.1887 6.21852 11.4328Z" fill="#9CADB6"/>
<path d="M14.0846 0.915254C12.8643 -0.305085 10.8854 -0.305085 9.66506 0.915254L7.54442 3.03589C7.30034 3.27997 7.30034 3.67571 7.54442 3.91978C7.78849 4.16386 8.18424 4.16386 8.42831 3.91978L10.5489 1.79915C11.2811 1.06695 12.4685 1.06695 13.2007 1.79915C13.9329 2.53131 13.9329 3.7181 13.2007 4.45026L9.31194 8.33907C8.57975 9.07126 7.39298 9.07126 6.66082 8.33907C6.41675 8.09499 6.021 8.09499 5.77693 8.33907C5.53285 8.58314 5.53285 8.97888 5.77693 9.22296C6.99727 10.4433 8.97549 10.4433 10.1958 9.22296L14.0846 5.33419C15.3049 4.11385 15.3049 2.13559 14.0846 0.915254Z" fill="#9CADB6"/>
</g>
<defs>
<clipPath id="clip0_3912_26462">
<rect width="15" height="15" fill="white"/>
</clipPath>
</defs>
</svg>
