<svg width="304" height="296" viewBox="0 0 304 296" fill="none" xmlns="http://www.w3.org/2000/svg">
<path d="M86.9854 188.772C86.1257 192.035 83.3316 192.824 80.8599 190.508L31.8021 145.674C29.2767 143.359 29.814 140.464 33.038 139.201L101.869 112.259C105.093 110.996 106.974 112.679 106.114 115.942L86.9854 188.772Z" fill="url(#paint0_linear_1797_20102)"/>
<path d="M46.4711 231.396C43.8382 233.606 41.2053 232.712 40.6143 229.344L27.1812 156.462C26.5901 153.146 28.1483 152.304 30.6738 154.62L77.3673 197.297C79.8927 199.612 79.839 203.296 77.2061 205.506L46.4711 231.396Z" fill="url(#paint1_linear_1797_20102)"/>
<path d="M102.783 97.7347C105.039 100.313 104.234 103.418 101.063 104.681L32.6081 131.466C29.3842 132.729 27.7722 131.15 28.9543 127.993L57.0564 54.0053C58.2385 50.8479 61.0863 50.3217 63.3431 52.9002L102.783 97.7347Z" fill="url(#paint2_linear_1797_20102)"/>
<path d="M31.1036 218.977C31.6947 222.293 30.6738 222.713 28.7931 219.872L2.24929 179.721C0.368658 176.879 0.529855 172.354 2.57169 169.617L14.4466 154.041C16.4884 151.357 18.6914 151.831 19.3362 155.146L31.1036 218.977Z" fill="url(#paint3_linear_1797_20102)"/>
<path d="M22.7214 123.467C21.5392 126.625 19.6586 126.625 18.5302 123.415L9.44944 96.7875C8.37479 93.5775 9.55691 89.1046 12.1361 86.8418L44.483 58.1624C47.0622 55.8997 48.1368 56.6364 46.9547 59.7937L22.7214 123.467Z" fill="url(#paint4_linear_1797_20102)"/>
<path d="M14.1779 133.729C15.2525 136.939 14.5003 141.78 12.4047 144.464L3.16275 156.672C1.12091 159.356 -0.276131 158.83 0.0462636 155.462L4.50606 113.153C4.88218 109.785 6.0643 109.68 7.13895 112.89L14.1779 133.729Z" fill="url(#paint5_linear_1797_20102)"/>
<path d="M50.6622 38.4816C51.7906 39.7971 50.6622 42.6914 48.0831 45.0068L33.5753 57.8993C30.9962 60.1621 30.62 59.7938 32.6619 57.11L44.8591 41.0601C46.901 38.3237 49.5338 37.166 50.6622 38.4816Z" fill="url(#paint6_linear_1797_20102)"/>
<path d="M142.437 263.601C140.718 266.496 137.655 266.653 135.721 263.864L97.6781 209.663C95.7438 206.874 96.9259 204.296 100.365 203.98L176.772 196.244C180.211 195.876 181.608 197.981 179.835 200.928L142.437 263.601Z" fill="url(#paint7_linear_1797_20102)"/>
<path d="M126.532 263.654C128.467 266.443 127.392 267.811 124.168 266.759L52.5429 242.921C49.2652 241.816 48.7279 239.132 51.3608 236.922L82.042 211.031C84.6749 208.821 88.3824 209.295 90.3705 212.084L126.532 263.654Z" fill="url(#paint8_linear_1797_20102)"/>
<path d="M178.384 183.667C180.641 186.246 179.674 188.614 176.235 188.982L98.6991 196.823C95.2602 197.191 93.1646 194.771 94.0243 191.508L113.422 117.573C114.281 114.311 116.807 113.732 119.064 116.258L178.384 183.667Z" fill="url(#paint9_linear_1797_20102)"/>
<path d="M234.051 247.025C236.308 249.604 235.394 252.235 232.009 252.971L153.13 269.232C149.745 269.916 148.402 268.127 150.175 265.18L187.358 202.875C189.077 199.98 192.355 199.665 194.611 202.243L234.051 247.025Z" fill="url(#paint10_linear_1797_20102)"/>
<path d="M107.189 288.597C104.126 290.176 99.5588 289.649 96.9796 287.439L60.3341 255.76C57.7549 253.498 58.2922 252.603 61.5699 253.656L124.222 274.494C127.5 275.599 127.661 277.757 124.652 279.388L107.189 288.597Z" fill="url(#paint11_linear_1797_20102)"/>
<path d="M192.247 291.596C189.561 293.754 184.886 294.228 181.769 292.702L156.246 279.967C153.184 278.441 153.399 276.599 156.784 275.915L224.755 261.917C228.141 261.233 228.732 262.391 226.045 264.548L192.247 291.596Z" fill="url(#paint12_linear_1797_20102)"/>
<path d="M121.105 293.123C117.667 292.965 117.344 291.544 120.353 289.913L134.055 282.703C137.118 281.125 142.115 281.072 145.178 282.598L165.166 292.544C168.229 294.07 167.96 295.227 164.468 295.07L121.105 293.123Z" fill="url(#paint13_linear_1797_20102)"/>
<path d="M246.786 261.444C247.914 262.759 246.41 265.127 243.347 266.706L225.346 276.125C222.284 277.704 222.015 277.283 224.648 275.126L239.854 262.97C242.487 260.812 245.604 260.128 246.786 261.444Z" fill="url(#paint14_linear_1797_20102)"/>
<path d="M201.221 182.878C197.997 184.141 196.116 182.457 196.976 179.195L216.104 106.365C216.964 103.102 219.758 102.313 222.284 104.628L271.341 149.463C273.867 151.778 273.33 154.672 270.106 155.935L201.221 182.878Z" fill="url(#paint15_linear_1797_20102)"/>
<path d="M275.962 138.675C276.553 141.99 274.995 142.832 272.47 140.517L225.776 97.8399C223.251 95.5245 223.305 91.8409 225.938 89.6308L256.619 63.7404C259.252 61.5303 261.884 62.4249 262.476 65.7927L275.962 138.675Z" fill="url(#paint16_linear_1797_20102)"/>
<path d="M246.033 241.131C244.851 244.289 242.004 244.815 239.747 242.236L200.307 197.402C198.05 194.823 198.856 191.719 202.027 190.456L270.482 163.671C273.706 162.408 275.318 163.987 274.136 167.144L246.033 241.131Z" fill="url(#paint17_linear_1797_20102)"/>
<path d="M300.841 115.416C302.721 118.258 302.56 122.783 300.518 125.519L288.643 141.043C286.601 143.727 284.398 143.253 283.754 139.938L271.986 76.1594C271.395 72.8442 272.416 72.4232 274.297 75.2648L300.841 115.416Z" fill="url(#paint18_linear_1797_20102)"/>
<path d="M293.587 198.402C294.661 201.612 293.479 206.085 290.9 208.347L258.553 237.027C255.974 239.29 254.899 238.553 256.081 235.396L280.315 171.67C281.497 168.512 283.378 168.512 284.506 171.722L293.587 198.402Z" fill="url(#paint19_linear_1797_20102)"/>
<path d="M298.638 181.931C298.261 185.299 297.079 185.404 296.005 182.194L288.912 161.355C287.837 158.145 288.643 153.304 290.685 150.62L299.981 138.412C302.023 135.728 303.42 136.254 303.097 139.622L298.638 181.931Z" fill="url(#paint20_linear_1797_20102)"/>
<path d="M258.231 254.077C256.189 256.813 253.556 257.918 252.374 256.655C251.245 255.34 252.374 252.445 254.953 250.13L269.515 237.237C272.094 234.975 272.47 235.343 270.428 238.027L258.231 254.077Z" fill="url(#paint21_linear_1797_20102)"/>
<path d="M205.412 85.4736C207.346 88.2626 206.164 90.8411 202.725 91.1568L126.318 98.8924C122.879 99.2607 121.482 97.1558 123.255 94.209L160.653 31.5354C162.372 28.6411 165.435 28.4833 167.369 31.2723L205.412 85.4736Z" fill="url(#paint22_linear_1797_20102)"/>
<path d="M221.048 84.1054C218.415 86.3156 214.707 85.842 212.719 83.053L176.557 31.4828C174.623 28.6938 175.698 27.3256 178.922 28.378L250.547 52.2161C253.825 53.3212 254.362 56.0049 251.729 58.2151L221.048 84.1054Z" fill="url(#paint23_linear_1797_20102)"/>
<path d="M189.668 177.563C188.808 180.826 186.283 181.405 184.026 178.879L124.759 111.469C122.503 108.891 123.47 106.523 126.909 106.154L204.444 98.3135C207.883 97.9452 209.979 100.366 209.119 103.628L189.668 177.563Z" fill="url(#paint24_linear_1797_20102)"/>
<path d="M115.732 92.3145C114.013 95.2088 110.735 95.5245 108.478 92.946L69.0387 48.1115C66.782 45.533 67.6954 42.9019 71.0806 42.1652L149.96 25.9048C153.345 25.2207 154.688 27.0098 152.915 29.9567L115.732 92.3145Z" fill="url(#paint25_linear_1797_20102)"/>
<path d="M178.868 20.6425C175.59 19.5374 175.429 17.3799 178.438 15.7486L195.901 6.59225C198.964 5.01357 203.531 5.5398 206.164 7.74995L242.756 39.4288C245.335 41.6916 244.798 42.5861 241.52 41.5337L178.868 20.6425Z" fill="url(#paint26_linear_1797_20102)"/>
<path d="M78.3344 33.2193C74.9493 33.9034 74.3583 32.7457 77.0449 30.5882L110.789 3.54014C113.475 1.38261 118.15 0.909004 121.267 2.43506L146.843 15.1697C149.906 16.6958 149.691 18.5376 146.306 19.2217L78.3344 33.2193Z" fill="url(#paint27_linear_1797_20102)"/>
<path d="M169.089 12.3807C166.026 13.9594 161.029 14.012 157.966 12.486L137.977 2.54031C134.915 1.01425 135.183 -0.143448 138.676 0.0144196L182.038 1.96146C185.477 2.11933 185.799 3.54014 182.79 5.17144L169.089 12.3807Z" fill="url(#paint28_linear_1797_20102)"/>
<path d="M63.2894 32.1669C60.6027 34.3244 57.4863 35.0085 56.3579 33.6929C55.2295 32.3773 56.734 30.0093 59.7968 28.4306L77.7971 19.0112C80.8599 17.4325 81.1285 17.8535 78.4957 20.011L63.2894 32.1669Z" fill="url(#paint29_linear_1797_20102)"/>
<path d="M40.1844 246.341C41.5277 245.236 44.483 246.341 46.8472 248.867L60.0117 263.128C62.3222 265.654 61.9461 266.022 59.2057 264.022L42.7636 252.077C40.0232 250.077 38.8411 247.499 40.1844 246.341Z" fill="url(#paint30_linear_1797_20102)"/>
<path d="M267.795 54.321C269.138 53.2159 271.556 54.6894 273.168 57.6888L282.786 75.3174C284.398 78.3169 283.969 78.58 281.766 76.0015L269.353 61.1093C267.204 58.5308 266.505 55.4261 267.795 54.321Z" fill="url(#paint31_linear_1797_20102)"/>
<path d="M260.326 43.0597C263.12 45.0594 264.249 47.6379 262.959 48.7956C261.616 49.9007 258.66 48.7956 256.296 46.2697L243.132 32.009C240.821 29.4831 241.197 29.1147 243.938 31.1144L260.326 43.0597Z" fill="url(#paint32_linear_1797_20102)"/>
<path d="M33.7365 234.027C35.9395 236.658 36.6381 239.711 35.2947 240.816C33.9514 241.921 31.5335 240.447 29.9215 237.448L20.3034 219.819C18.6914 216.82 19.1213 216.557 21.3243 219.135L33.7365 234.027Z" fill="url(#paint33_linear_1797_20102)"/>
<defs>
<linearGradient id="paint0_linear_1797_20102" x1="151.572" y1="1.30314e-08" x2="151.858" y2="359.442" gradientUnits="userSpaceOnUse">
<stop stop-color="#DA88DE"/>
<stop offset="0.373617" stop-color="#5E75E8"/>
<stop offset="1" stop-color="#80C6EB"/>
</linearGradient>
<linearGradient id="paint1_linear_1797_20102" x1="151.572" y1="1.30314e-08" x2="151.858" y2="359.442" gradientUnits="userSpaceOnUse">
<stop stop-color="#DA88DE"/>
<stop offset="0.373617" stop-color="#5E75E8"/>
<stop offset="1" stop-color="#80C6EB"/>
</linearGradient>
<linearGradient id="paint2_linear_1797_20102" x1="151.572" y1="1.30314e-08" x2="151.858" y2="359.442" gradientUnits="userSpaceOnUse">
<stop stop-color="#DA88DE"/>
<stop offset="0.373617" stop-color="#5E75E8"/>
<stop offset="1" stop-color="#80C6EB"/>
</linearGradient>
<linearGradient id="paint3_linear_1797_20102" x1="151.572" y1="1.30314e-08" x2="151.858" y2="359.442" gradientUnits="userSpaceOnUse">
<stop stop-color="#DA88DE"/>
<stop offset="0.373617" stop-color="#5E75E8"/>
<stop offset="1" stop-color="#80C6EB"/>
</linearGradient>
<linearGradient id="paint4_linear_1797_20102" x1="151.572" y1="1.30314e-08" x2="151.858" y2="359.442" gradientUnits="userSpaceOnUse">
<stop stop-color="#DA88DE"/>
<stop offset="0.373617" stop-color="#5E75E8"/>
<stop offset="1" stop-color="#80C6EB"/>
</linearGradient>
<linearGradient id="paint5_linear_1797_20102" x1="151.572" y1="1.30314e-08" x2="151.858" y2="359.442" gradientUnits="userSpaceOnUse">
<stop stop-color="#DA88DE"/>
<stop offset="0.373617" stop-color="#5E75E8"/>
<stop offset="1" stop-color="#80C6EB"/>
</linearGradient>
<linearGradient id="paint6_linear_1797_20102" x1="151.572" y1="1.30314e-08" x2="151.858" y2="359.442" gradientUnits="userSpaceOnUse">
<stop stop-color="#DA88DE"/>
<stop offset="0.373617" stop-color="#5E75E8"/>
<stop offset="1" stop-color="#80C6EB"/>
</linearGradient>
<linearGradient id="paint7_linear_1797_20102" x1="151.572" y1="1.30314e-08" x2="151.858" y2="359.442" gradientUnits="userSpaceOnUse">
<stop stop-color="#DA88DE"/>
<stop offset="0.373617" stop-color="#5E75E8"/>
<stop offset="1" stop-color="#80C6EB"/>
</linearGradient>
<linearGradient id="paint8_linear_1797_20102" x1="151.572" y1="1.30314e-08" x2="151.858" y2="359.442" gradientUnits="userSpaceOnUse">
<stop stop-color="#DA88DE"/>
<stop offset="0.373617" stop-color="#5E75E8"/>
<stop offset="1" stop-color="#80C6EB"/>
</linearGradient>
<linearGradient id="paint9_linear_1797_20102" x1="151.572" y1="1.30314e-08" x2="151.858" y2="359.442" gradientUnits="userSpaceOnUse">
<stop stop-color="#DA88DE"/>
<stop offset="0.373617" stop-color="#5E75E8"/>
<stop offset="1" stop-color="#80C6EB"/>
</linearGradient>
<linearGradient id="paint10_linear_1797_20102" x1="151.572" y1="1.30314e-08" x2="151.858" y2="359.442" gradientUnits="userSpaceOnUse">
<stop stop-color="#DA88DE"/>
<stop offset="0.373617" stop-color="#5E75E8"/>
<stop offset="1" stop-color="#80C6EB"/>
</linearGradient>
<linearGradient id="paint11_linear_1797_20102" x1="151.572" y1="1.30314e-08" x2="151.858" y2="359.442" gradientUnits="userSpaceOnUse">
<stop stop-color="#DA88DE"/>
<stop offset="0.373617" stop-color="#5E75E8"/>
<stop offset="1" stop-color="#80C6EB"/>
</linearGradient>
<linearGradient id="paint12_linear_1797_20102" x1="151.572" y1="1.30314e-08" x2="151.858" y2="359.442" gradientUnits="userSpaceOnUse">
<stop stop-color="#DA88DE"/>
<stop offset="0.373617" stop-color="#5E75E8"/>
<stop offset="1" stop-color="#80C6EB"/>
</linearGradient>
<linearGradient id="paint13_linear_1797_20102" x1="151.572" y1="1.30314e-08" x2="151.858" y2="359.442" gradientUnits="userSpaceOnUse">
<stop stop-color="#DA88DE"/>
<stop offset="0.373617" stop-color="#5E75E8"/>
<stop offset="1" stop-color="#80C6EB"/>
</linearGradient>
<linearGradient id="paint14_linear_1797_20102" x1="151.572" y1="1.30314e-08" x2="151.858" y2="359.442" gradientUnits="userSpaceOnUse">
<stop stop-color="#DA88DE"/>
<stop offset="0.373617" stop-color="#5E75E8"/>
<stop offset="1" stop-color="#80C6EB"/>
</linearGradient>
<linearGradient id="paint15_linear_1797_20102" x1="151.572" y1="1.30314e-08" x2="151.858" y2="359.442" gradientUnits="userSpaceOnUse">
<stop stop-color="#DA88DE"/>
<stop offset="0.373617" stop-color="#5E75E8"/>
<stop offset="1" stop-color="#80C6EB"/>
</linearGradient>
<linearGradient id="paint16_linear_1797_20102" x1="151.572" y1="1.30314e-08" x2="151.858" y2="359.442" gradientUnits="userSpaceOnUse">
<stop stop-color="#DA88DE"/>
<stop offset="0.373617" stop-color="#5E75E8"/>
<stop offset="1" stop-color="#80C6EB"/>
</linearGradient>
<linearGradient id="paint17_linear_1797_20102" x1="151.572" y1="1.30314e-08" x2="151.858" y2="359.442" gradientUnits="userSpaceOnUse">
<stop stop-color="#DA88DE"/>
<stop offset="0.373617" stop-color="#5E75E8"/>
<stop offset="1" stop-color="#80C6EB"/>
</linearGradient>
<linearGradient id="paint18_linear_1797_20102" x1="151.572" y1="1.30314e-08" x2="151.858" y2="359.442" gradientUnits="userSpaceOnUse">
<stop stop-color="#DA88DE"/>
<stop offset="0.373617" stop-color="#5E75E8"/>
<stop offset="1" stop-color="#80C6EB"/>
</linearGradient>
<linearGradient id="paint19_linear_1797_20102" x1="151.572" y1="1.30314e-08" x2="151.858" y2="359.442" gradientUnits="userSpaceOnUse">
<stop stop-color="#DA88DE"/>
<stop offset="0.373617" stop-color="#5E75E8"/>
<stop offset="1" stop-color="#80C6EB"/>
</linearGradient>
<linearGradient id="paint20_linear_1797_20102" x1="151.572" y1="1.30314e-08" x2="151.858" y2="359.442" gradientUnits="userSpaceOnUse">
<stop stop-color="#DA88DE"/>
<stop offset="0.373617" stop-color="#5E75E8"/>
<stop offset="1" stop-color="#80C6EB"/>
</linearGradient>
<linearGradient id="paint21_linear_1797_20102" x1="151.572" y1="1.30314e-08" x2="151.858" y2="359.442" gradientUnits="userSpaceOnUse">
<stop stop-color="#DA88DE"/>
<stop offset="0.373617" stop-color="#5E75E8"/>
<stop offset="1" stop-color="#80C6EB"/>
</linearGradient>
<linearGradient id="paint22_linear_1797_20102" x1="151.572" y1="1.30314e-08" x2="151.858" y2="359.442" gradientUnits="userSpaceOnUse">
<stop stop-color="#DA88DE"/>
<stop offset="0.373617" stop-color="#5E75E8"/>
<stop offset="1" stop-color="#80C6EB"/>
</linearGradient>
<linearGradient id="paint23_linear_1797_20102" x1="151.572" y1="1.30314e-08" x2="151.858" y2="359.442" gradientUnits="userSpaceOnUse">
<stop stop-color="#DA88DE"/>
<stop offset="0.373617" stop-color="#5E75E8"/>
<stop offset="1" stop-color="#80C6EB"/>
</linearGradient>
<linearGradient id="paint24_linear_1797_20102" x1="151.572" y1="1.30314e-08" x2="151.858" y2="359.442" gradientUnits="userSpaceOnUse">
<stop stop-color="#DA88DE"/>
<stop offset="0.373617" stop-color="#5E75E8"/>
<stop offset="1" stop-color="#80C6EB"/>
</linearGradient>
<linearGradient id="paint25_linear_1797_20102" x1="151.572" y1="1.30314e-08" x2="151.858" y2="359.442" gradientUnits="userSpaceOnUse">
<stop stop-color="#DA88DE"/>
<stop offset="0.373617" stop-color="#5E75E8"/>
<stop offset="1" stop-color="#80C6EB"/>
</linearGradient>
<linearGradient id="paint26_linear_1797_20102" x1="151.572" y1="1.30314e-08" x2="151.858" y2="359.442" gradientUnits="userSpaceOnUse">
<stop stop-color="#DA88DE"/>
<stop offset="0.373617" stop-color="#5E75E8"/>
<stop offset="1" stop-color="#80C6EB"/>
</linearGradient>
<linearGradient id="paint27_linear_1797_20102" x1="151.572" y1="1.30314e-08" x2="151.858" y2="359.442" gradientUnits="userSpaceOnUse">
<stop stop-color="#DA88DE"/>
<stop offset="0.373617" stop-color="#5E75E8"/>
<stop offset="1" stop-color="#80C6EB"/>
</linearGradient>
<linearGradient id="paint28_linear_1797_20102" x1="151.572" y1="1.30314e-08" x2="151.858" y2="359.442" gradientUnits="userSpaceOnUse">
<stop stop-color="#DA88DE"/>
<stop offset="0.373617" stop-color="#5E75E8"/>
<stop offset="1" stop-color="#80C6EB"/>
</linearGradient>
<linearGradient id="paint29_linear_1797_20102" x1="151.572" y1="1.30314e-08" x2="151.858" y2="359.442" gradientUnits="userSpaceOnUse">
<stop stop-color="#DA88DE"/>
<stop offset="0.373617" stop-color="#5E75E8"/>
<stop offset="1" stop-color="#80C6EB"/>
</linearGradient>
<linearGradient id="paint30_linear_1797_20102" x1="151.572" y1="1.30314e-08" x2="151.858" y2="359.442" gradientUnits="userSpaceOnUse">
<stop stop-color="#DA88DE"/>
<stop offset="0.373617" stop-color="#5E75E8"/>
<stop offset="1" stop-color="#80C6EB"/>
</linearGradient>
<linearGradient id="paint31_linear_1797_20102" x1="151.572" y1="1.30314e-08" x2="151.858" y2="359.442" gradientUnits="userSpaceOnUse">
<stop stop-color="#DA88DE"/>
<stop offset="0.373617" stop-color="#5E75E8"/>
<stop offset="1" stop-color="#80C6EB"/>
</linearGradient>
<linearGradient id="paint32_linear_1797_20102" x1="151.572" y1="1.30314e-08" x2="151.858" y2="359.442" gradientUnits="userSpaceOnUse">
<stop stop-color="#DA88DE"/>
<stop offset="0.373617" stop-color="#5E75E8"/>
<stop offset="1" stop-color="#80C6EB"/>
</linearGradient>
<linearGradient id="paint33_linear_1797_20102" x1="151.572" y1="1.30314e-08" x2="151.858" y2="359.442" gradientUnits="userSpaceOnUse">
<stop stop-color="#DA88DE"/>
<stop offset="0.373617" stop-color="#5E75E8"/>
<stop offset="1" stop-color="#80C6EB"/>
</linearGradient>
</defs>
</svg>
