<svg width="29" height="9" viewBox="0 0 29 9" fill="none" xmlns="http://www.w3.org/2000/svg">
<path d="M3.95637 8.07C3.3097 8.07 2.7197 7.92 2.18637 7.62C1.65303 7.31333 1.2297 6.89 0.916367 6.35C0.609701 5.80333 0.456367 5.19 0.456367 4.51C0.456367 3.83 0.609701 3.22 0.916367 2.68C1.2297 2.13333 1.65303 1.71 2.18637 1.41C2.7197 1.10333 3.3097 0.95 3.95637 0.95C4.6097 0.95 5.20303 1.10333 5.73637 1.41C6.2697 1.71 6.6897 2.13 6.99637 2.67C7.30303 3.21 7.45637 3.82333 7.45637 4.51C7.45637 5.19667 7.30303 5.81 6.99637 6.35C6.6897 6.89 6.2697 7.31333 5.73637 7.62C5.20303 7.92 4.6097 8.07 3.95637 8.07ZM3.95637 7.28C4.44303 7.28 4.8797 7.16667 5.26637 6.94C5.6597 6.71333 5.96637 6.39 6.18637 5.97C6.41303 5.55 6.52637 5.06333 6.52637 4.51C6.52637 3.95 6.41303 3.46333 6.18637 3.05C5.96637 2.63 5.66303 2.30667 5.27637 2.08C4.8897 1.85333 4.4497 1.74 3.95637 1.74C3.46303 1.74 3.02303 1.85333 2.63637 2.08C2.2497 2.30667 1.94303 2.63 1.71637 3.05C1.49637 3.46333 1.38637 3.95 1.38637 4.51C1.38637 5.06333 1.49637 5.55 1.71637 5.97C1.94303 6.39 2.2497 6.71333 2.63637 6.94C3.0297 7.16667 3.4697 7.28 3.95637 7.28ZM13.3277 8L11.6677 5.15H10.5677V8H9.6577V1.03H11.9077C12.4344 1.03 12.8777 1.12 13.2377 1.3C13.6044 1.48 13.8777 1.72333 14.0577 2.03C14.2377 2.33667 14.3277 2.68667 14.3277 3.08C14.3277 3.56 14.1877 3.98333 13.9077 4.35C13.6344 4.71667 13.221 4.96 12.6677 5.08L14.4177 8H13.3277ZM10.5677 4.42H11.9077C12.401 4.42 12.771 4.3 13.0177 4.06C13.2644 3.81333 13.3877 3.48667 13.3877 3.08C13.3877 2.66667 13.2644 2.34667 13.0177 2.12C12.7777 1.89333 12.4077 1.78 11.9077 1.78H10.5677V4.42ZM20.2317 4.41C20.485 4.45 20.715 4.55333 20.9217 4.72C21.135 4.88667 21.3017 5.09333 21.4217 5.34C21.5483 5.58667 21.6117 5.85 21.6117 6.13C21.6117 6.48333 21.5217 6.80333 21.3417 7.09C21.1617 7.37 20.8983 7.59333 20.5517 7.76C20.2117 7.92 19.8083 8 19.3417 8H16.7417V1.03H19.2417C19.715 1.03 20.1183 1.11 20.4517 1.27C20.785 1.42333 21.035 1.63333 21.2017 1.9C21.3683 2.16667 21.4517 2.46667 21.4517 2.8C21.4517 3.21333 21.3383 3.55667 21.1117 3.83C20.8917 4.09667 20.5983 4.29 20.2317 4.41ZM17.6517 4.04H19.1817C19.6083 4.04 19.9383 3.94 20.1717 3.74C20.405 3.54 20.5217 3.26333 20.5217 2.91C20.5217 2.55667 20.405 2.28 20.1717 2.08C19.9383 1.88 19.6017 1.78 19.1617 1.78H17.6517V4.04ZM19.2617 7.25C19.715 7.25 20.0683 7.14333 20.3217 6.93C20.575 6.71667 20.7017 6.42 20.7017 6.04C20.7017 5.65333 20.5683 5.35 20.3017 5.13C20.035 4.90333 19.6783 4.79 19.2317 4.79H17.6517V7.25H19.2617ZM26.0845 8.07C25.6245 8.07 25.2112 7.99 24.8445 7.83C24.4845 7.66333 24.2012 7.43667 23.9945 7.15C23.7878 6.85667 23.6812 6.52 23.6745 6.14H24.6445C24.6778 6.46667 24.8112 6.74333 25.0445 6.97C25.2845 7.19 25.6312 7.3 26.0845 7.3C26.5178 7.3 26.8578 7.19333 27.1045 6.98C27.3578 6.76 27.4845 6.48 27.4845 6.14C27.4845 5.87333 27.4112 5.65667 27.2645 5.49C27.1178 5.32333 26.9345 5.19667 26.7145 5.11C26.4945 5.02333 26.1978 4.93 25.8245 4.83C25.3645 4.71 24.9945 4.59 24.7145 4.47C24.4412 4.35 24.2045 4.16333 24.0045 3.91C23.8112 3.65 23.7145 3.30333 23.7145 2.87C23.7145 2.49 23.8112 2.15333 24.0045 1.86C24.1978 1.56667 24.4678 1.34 24.8145 1.18C25.1678 1.02 25.5712 0.94 26.0245 0.94C26.6778 0.94 27.2112 1.10333 27.6245 1.43C28.0445 1.75667 28.2812 2.19 28.3345 2.73H27.3345C27.3012 2.46333 27.1612 2.23 26.9145 2.03C26.6678 1.82333 26.3412 1.72 25.9345 1.72C25.5545 1.72 25.2445 1.82 25.0045 2.02C24.7645 2.21333 24.6445 2.48667 24.6445 2.84C24.6445 3.09333 24.7145 3.3 24.8545 3.46C25.0012 3.62 25.1778 3.74333 25.3845 3.83C25.5978 3.91 25.8945 4.00333 26.2745 4.11C26.7345 4.23667 27.1045 4.36333 27.3845 4.49C27.6645 4.61 27.9045 4.8 28.1045 5.06C28.3045 5.31333 28.4045 5.66 28.4045 6.1C28.4045 6.44 28.3145 6.76 28.1345 7.06C27.9545 7.36 27.6878 7.60333 27.3345 7.79C26.9812 7.97667 26.5645 8.07 26.0845 8.07Z" fill="#9AABB4"/>
</svg>
