<svg width="15" height="15" viewBox="0 0 15 15" fill="none" xmlns="http://www.w3.org/2000/svg">
<path d="M2.60297 10.2182C2.48297 10.2182 2.3632 10.1725 2.27156 10.0808C2.08852 9.89777 2.08852 9.60105 2.27156 9.41801L9.59672 2.09285C9.77953 1.9098 10.0765 1.9098 10.2595 2.09285C10.4426 2.2759 10.4426 2.57262 10.2595 2.75566L2.93438 10.0808C2.84297 10.1722 2.72297 10.2182 2.60297 10.2182Z" fill="#0088CC"/>
<path d="M1.87889 13.5936C1.84631 13.5936 1.81326 13.5901 1.78021 13.583C1.52709 13.5287 1.36584 13.2795 1.42021 13.0264L2.14443 9.65068C2.19881 9.39756 2.44912 9.23677 2.70107 9.29068C2.9542 9.34506 3.11545 9.5942 3.06107 9.84732L2.33686 13.223C2.28975 13.4431 2.09521 13.5936 1.87889 13.5936Z" fill="#0088CC"/>
<path d="M5.25434 12.8693C5.13434 12.8693 5.01457 12.8236 4.92293 12.732C4.73988 12.5489 4.73988 12.2522 4.92293 12.0691L12.2481 4.74422C12.4309 4.56117 12.7279 4.56117 12.9109 4.74422C13.0939 4.92727 13.0939 5.22398 12.9109 5.40703L5.58598 12.732C5.49434 12.8236 5.37434 12.8693 5.25434 12.8693Z" fill="#0088CC"/>
<path d="M1.87811 13.5939C1.66179 13.5939 1.46749 13.4434 1.42015 13.2233C1.366 12.9702 1.52702 12.7211 1.78014 12.6667L5.15585 11.9425C5.40921 11.8888 5.65835 12.0496 5.71249 12.3025C5.76663 12.5556 5.60561 12.8047 5.35249 12.8591L1.97679 13.5833C1.94374 13.5906 1.91069 13.5939 1.87811 13.5939Z" fill="#0088CC"/>
<path d="M11.2535 6.87018C11.1335 6.87018 11.0135 6.82447 10.9221 6.73283L8.27059 4.08135C8.08754 3.8983 8.08754 3.60158 8.27059 3.41854C8.4534 3.23549 8.75059 3.23549 8.9334 3.41854L11.5849 6.07002C11.7679 6.25307 11.7679 6.54978 11.5849 6.73283C11.4935 6.82447 11.3735 6.87018 11.2535 6.87018Z" fill="#0088CC"/>
<path d="M12.5791 5.54467C12.4591 5.54467 12.3391 5.49896 12.2475 5.40732C12.0645 5.22428 12.0645 4.92756 12.2475 4.74428C12.5084 4.48342 12.652 4.13021 12.652 3.75006C12.652 3.3699 12.5084 3.0167 12.2475 2.75584C11.9864 2.49475 11.6332 2.35107 11.253 2.35107C10.8729 2.35107 10.5197 2.49475 10.2588 2.75584C10.076 2.93889 9.7793 2.93912 9.59578 2.75584C9.41273 2.57279 9.41273 2.27607 9.59578 2.09279C10.0336 1.65475 10.6221 1.41357 11.253 1.41357C11.8837 1.41357 12.4725 1.65475 12.9103 2.09279C13.3484 2.53061 13.5895 3.11912 13.5895 3.75006C13.5895 4.381 13.3484 4.96951 12.9103 5.40732C12.8191 5.49873 12.6991 5.54467 12.5791 5.54467Z" fill="#0088CC"/>
</svg>
