<svg width="14" height="14" viewBox="0 0 14 14" fill="none" xmlns="http://www.w3.org/2000/svg">
<path d="M13.5528 12.7518L10.2208 9.28631C11.0775 8.26788 11.5469 6.98648 11.5469 5.65249C11.5469 2.53576 9.01117 0 5.89444 0C2.7777 0 0.241943 2.53576 0.241943 5.65249C0.241943 8.76923 2.7777 11.305 5.89444 11.305C7.0645 11.305 8.17952 10.9521 9.13282 10.2821L12.4902 13.7739C12.6305 13.9196 12.8192 14 13.0215 14C13.2129 14 13.3946 13.927 13.5324 13.7943C13.8254 13.5124 13.8347 13.045 13.5528 12.7518ZM5.89444 1.47456C8.1982 1.47456 10.0724 3.34873 10.0724 5.65249C10.0724 7.95625 8.1982 9.83043 5.89444 9.83043C3.59068 9.83043 1.71651 7.95625 1.71651 5.65249C1.71651 3.34873 3.59068 1.47456 5.89444 1.47456Z" fill="#7A828A"/>
</svg>
