<svg width="35" height="35" viewBox="0 0 35 35" fill="none" xmlns="http://www.w3.org/2000/svg">
<path d="M17.5001 0C7.88809 0 0 7.88803 0 17.5C0 25.7023 5.75558 33.1532 13.3985 35V29.2103C12.6412 29.3761 11.9443 29.3809 11.1734 29.1537C10.1392 28.8485 9.29881 28.1595 8.67503 27.109C8.27742 26.4383 7.57273 25.7109 6.83759 25.7643L6.65735 23.7215C8.24698 23.5853 9.62219 24.69 10.4385 26.0615C10.8011 26.6714 11.2185 27.0289 11.7542 27.187C12.2719 27.3395 12.8279 27.2663 13.4757 27.0375C13.6383 25.7405 14.2325 25.2551 14.6814 24.5715V24.5704C10.1231 23.8905 8.30653 21.4723 7.58555 19.5636C6.63011 17.0292 7.14281 13.8631 8.83231 11.8622C8.86516 11.8232 8.92444 11.7212 8.90147 11.6499C8.12682 9.30996 9.07077 7.37427 9.10548 7.16892C9.9995 7.43328 10.1448 6.90296 12.9889 8.63091L13.4805 8.92624C13.6861 9.04881 13.6215 8.97884 13.8271 8.96336C15.0146 8.64079 16.2665 8.46268 17.4999 8.44666C18.7426 8.46268 19.9865 8.64079 21.2231 8.97644L21.3822 8.99246C21.3683 8.99033 21.4255 8.98232 21.5214 8.92517C25.0742 6.77319 24.9466 7.47654 25.8993 7.16679C25.9338 7.3724 26.8652 9.3396 26.0988 11.6499C25.9955 11.9682 29.179 14.8834 27.4145 19.5628C26.6935 21.4723 24.8771 23.8905 20.3189 24.5704V24.5715C20.9032 25.462 21.6052 25.9357 21.6015 27.7729V35C29.2447 33.1532 35 25.7023 35 17.5C35.0003 7.88803 27.1122 0 17.5001 0V0Z" fill="#4BA0E3"/>
</svg>
