<svg width="35" height="34" viewBox="0 0 35 34" fill="none" xmlns="http://www.w3.org/2000/svg">
<path d="M17.5001 -1C7.88809 -1 0 6.88803 0 16.5C0 24.7023 5.75558 32.1532 13.3985 34V28.2103C12.6412 28.3761 11.9443 28.3809 11.1734 28.1537C10.1392 27.8485 9.29882 27.1595 8.67503 26.109C8.27742 25.4383 7.57273 24.7109 6.83759 24.7643L6.65735 22.7215C8.24698 22.5853 9.62219 23.69 10.4385 25.0615C10.8011 25.6714 11.2185 26.0289 11.7542 26.187C12.2719 26.3395 12.8279 26.2663 13.4757 26.0375C13.6383 24.7405 14.2325 24.2551 14.6814 23.5715V23.5704C10.1231 22.8905 8.30653 20.4723 7.58555 18.5636C6.63011 16.0292 7.14281 12.8631 8.83231 10.8622C8.86516 10.8232 8.92444 10.7212 8.90147 10.6499C8.12682 8.30996 9.07077 6.37427 9.10548 6.16892C9.9995 6.43328 10.1448 5.90296 12.9889 7.63091L13.4805 7.92624C13.6861 8.04881 13.6215 7.97884 13.8271 7.96336C15.0146 7.64079 16.2665 7.46268 17.4999 7.44666C18.7426 7.46268 19.9865 7.64079 21.2231 7.97644L21.3822 7.99246C21.3683 7.99033 21.4255 7.98232 21.5214 7.92517C25.0742 5.77319 24.9466 6.47654 25.8993 6.16679C25.9338 6.3724 26.8652 8.3396 26.0988 10.6499C25.9955 10.9682 29.179 13.8834 27.4145 18.5628C26.6935 20.4723 24.8771 22.8905 20.3189 23.5704V23.5715C20.9032 24.462 21.6052 24.9357 21.6015 26.7729V34C29.2447 32.1532 35 24.7023 35 16.5C35.0003 6.88803 27.1122 -1 17.5001 -1V-1Z" fill="#4BA0E3"/>
</svg>
