<svg width="18" height="18" viewBox="0 0 18 18" fill="none" xmlns="http://www.w3.org/2000/svg">
<path d="M12.7969 11.25C13.3405 11.25 13.7812 10.8093 13.7812 10.2656C13.7812 9.72197 13.3405 9.28125 12.7969 9.28125C12.2532 9.28125 11.8125 9.72197 11.8125 10.2656C11.8125 10.8093 12.2532 11.25 12.7969 11.25Z" fill="#50A7EA"/>
<path d="M14.9062 4.52531V3.65625C14.9063 3.21305 14.732 2.78762 14.421 2.47187C14.11 2.15612 13.6872 1.9754 13.2441 1.96875H4.44937C1.96875 1.96875 1.71844 4.00219 1.6875 5.02875V5.0625V14.0625C1.6875 14.5101 1.86529 14.9393 2.18176 15.2557C2.49822 15.5722 2.92745 15.75 3.375 15.75H14.625C15.0726 15.75 15.5018 15.5722 15.8182 15.2557C16.1347 14.9393 16.3125 14.5101 16.3125 14.0625V6.1875C16.3121 5.789 16.1707 5.40351 15.9133 5.09928C15.6559 4.79505 15.2992 4.59173 14.9062 4.52531ZM4.44937 3.09375H13.2441C13.3888 3.10027 13.5255 3.1624 13.6255 3.26719C13.7256 3.37198 13.7814 3.51135 13.7812 3.65625V4.5H2.86313C3.00656 3.47906 3.47344 3.09375 4.44937 3.09375ZM15.1875 14.0625C15.1875 14.2117 15.1282 14.3548 15.0227 14.4602C14.9173 14.5657 14.7742 14.625 14.625 14.625H3.375C3.22582 14.625 3.08274 14.5657 2.97725 14.4602C2.87176 14.3548 2.8125 14.2117 2.8125 14.0625V5.625H14.625C14.7742 5.625 14.9173 5.68426 15.0227 5.78975C15.1282 5.89524 15.1875 6.03832 15.1875 6.1875V14.0625Z" fill="#50A7EA"/>
</svg>
