<svg width="50" height="50" viewBox="0 0 50 50" fill="none" xmlns="http://www.w3.org/2000/svg">
<rect width="50" height="50" rx="10" fill="url(#paint0_linear_1490_15280)"/>
<path opacity="0.3" fill-rule="evenodd" clip-rule="evenodd" d="M8.95835 17.0972C8.95835 16.2688 9.62992 15.5972 10.4583 15.5972H18.0139C18.8423 15.5972 19.5139 16.2688 19.5139 17.0972V18.0556C19.5139 18.884 18.8423 19.5556 18.0139 19.5556H10.4583C9.62992 19.5556 8.95835 18.884 8.95835 18.0556V17.0972ZM8.95835 32.9306C8.95835 32.1021 9.62992 31.4306 10.4583 31.4306H18.0139C18.8423 31.4306 19.5139 32.1021 19.5139 32.9306V33.8889C19.5139 34.7173 18.8423 35.3889 18.0139 35.3889H10.4583C9.62992 35.3889 8.95835 34.7173 8.95835 33.8889V32.9306ZM7.81946 23.5139C6.99103 23.5139 6.31946 24.1855 6.31946 25.0139V25.9722C6.31946 26.8007 6.99103 27.4722 7.81946 27.4722H14.0556C14.884 27.4722 15.5556 26.8007 15.5556 25.9722V25.0139C15.5556 24.1855 14.884 23.5139 14.0556 23.5139H7.81946Z" fill="white"/>
<circle cx="27" cy="25" r="13" fill="white"/>
<path fill-rule="evenodd" clip-rule="evenodd" d="M23.234 19.0001L32.8404 19C33.1803 19 33.5199 19.0499 33.8748 19.2154C34.3003 19.4137 34.5259 19.7263 34.6839 19.9574C34.6962 19.9754 34.7077 19.994 34.7184 20.0129C34.9042 20.3437 35 20.7009 35 21.0851C35 21.4502 34.9131 21.8479 34.7184 22.1945C34.7165 22.1979 34.7146 22.2012 34.7127 22.2045L28.6436 32.63C28.5097 32.8599 28.2634 33.0009 27.9974 33C27.7313 32.9991 27.486 32.8562 27.3538 32.6254L21.3961 22.2221C21.3943 22.2193 21.3926 22.2165 21.3909 22.2136C21.2546 21.989 21.0437 21.6415 21.0068 21.1931C20.9729 20.7808 21.0656 20.3676 21.2728 20.0094C21.48 19.6512 21.7919 19.3648 22.167 19.1894C22.5693 19.0015 22.9769 19.0001 23.234 19.0001ZM27.2553 20.4894H23.234C22.9698 20.4894 22.8684 20.5056 22.7975 20.5388C22.6995 20.5845 22.6171 20.6599 22.5621 20.755C22.507 20.8503 22.4821 20.9606 22.4912 21.0711C22.4964 21.1344 22.5222 21.2068 22.6745 21.4579C22.6776 21.4632 22.6808 21.4685 22.6838 21.4738L27.2553 29.4565V20.4894ZM28.7447 20.4894V29.4959L33.4221 21.4612C33.4748 21.3653 33.5106 21.2267 33.5106 21.0851C33.5106 20.9703 33.4868 20.8706 33.4336 20.7678C33.3778 20.6875 33.3438 20.645 33.3153 20.6159C33.2909 20.591 33.2721 20.5776 33.2456 20.5653C33.135 20.5137 33.0218 20.4894 32.8404 20.4894H28.7447Z" fill="#50A7EA"/>
<defs>
<linearGradient id="paint0_linear_1490_15280" x1="50" y1="0" x2="0" y2="50" gradientUnits="userSpaceOnUse">
<stop stop-color="#4195D6"/>
<stop offset="1" stop-color="#50A7EA"/>
</linearGradient>
</defs>
</svg>
